<svg id="visual" viewBox="0 0 960 50" width="960" height="50" xmlns="http://www.w3.org/2000/svg" xmlns:xlink="http://www.w3.org/1999/xlink" version="1.1"><path d="M0 18L16 20.7C32 23.3 64 28.7 96 31.7C128 34.7 160 35.3 192 32.3C224 29.3 256 22.7 288 22.3C320 22 352 28 384 27.5C416 27 448 20 480 18C512 16 544 19 576 22.5C608 26 640 30 672 32.2C704 34.3 736 34.7 768 34.7C800 34.7 832 34.3 864 31.2C896 28 928 22 944 19L960 16L960 51L944 51C928 51 896 51 864 51C832 51 800 51 768 51C736 51 704 51 672 51C640 51 608 51 576 51C544 51 512 51 480 51C448 51 416 51 384 51C352 51 320 51 288 51C256 51 224 51 192 51C160 51 128 51 96 51C64 51 32 51 16 51L0 51Z" fill="#e79e10" stroke-linecap="round" stroke-linejoin="miter"></path></svg>